<?xml version="1.0" standalone="no"?>
<!DOCTYPE svg PUBLIC "-//W3C//DTD SVG 20010904//EN"
 "http://www.w3.org/TR/2001/REC-SVG-20010904/DTD/svg10.dtd">
<svg version="1.0" xmlns="http://www.w3.org/2000/svg"
 width="171.000000pt" height="295.000000pt" viewBox="0 0 171.000000 295.000000"
 preserveAspectRatio="xMidYMid meet">
<metadata>
Created by potrace 1.13, written by Peter Selinger 2001-2015
</metadata>
<g transform="translate(0.000000,295.000000) scale(0.100000,-0.100000)"
fill="#FFA500" stroke="none">
<path d="M124 2940 c-39 -15 -72 -148 -44 -176 6 -6 6 -22 0 -44 -8 -27 -6
-47 6 -85 21 -62 31 -75 59 -75 62 0 473 -128 705 -220 175 -69 401 -186 493
-255 153 -116 251 -264 251 -380 0 -79 -42 -210 -109 -345 -44 -88 -66 -119
-136 -188 -153 -154 -306 -254 -596 -393 -91 -44 -179 -89 -195 -101 -16 -11
-33 -17 -38 -12 -4 5 23 101 61 214 70 210 82 262 100 435 6 55 13 119 16 143
7 59 -3 92 -27 92 -26 0 -63 -75 -79 -160 -28 -148 -115 -413 -163 -499 -54
-94 -173 -243 -267 -333 -50 -49 -104 -112 -121 -140 -28 -50 -30 -59 -30
-165 0 -64 4 -114 10 -118 6 -3 10 -17 10 -29 0 -13 8 -33 18 -45 l17 -22 56
30 c71 39 263 88 401 102 173 18 419 7 573 -25 141 -30 311 -84 387 -122 26
-13 54 -24 63 -24 29 0 42 58 41 171 -3 140 -9 149 -147 202 -127 48 -349 107
-406 107 -39 0 -70 19 -45 28 32 10 257 168 326 228 151 131 257 306 339 560
l45 139 6 205 c10 338 -19 453 -162 647 -101 135 -197 205 -472 342 -188 93
-480 201 -725 269 -171 48 -194 52 -221 42z"/>
</g>
</svg>
